<svg xmlns="http://www.w3.org/2000/svg" version="1.1" xmlns:xlink="http://www.w3.org/1999/xlink" xmlns:svgjs="http://svgjs.dev/svgjs" width="2000" height="388" viewBox="0 0 2000 388"><g transform="matrix(1,0,0,1,-1.2121212121212466,0.9711558634493827)"><svg viewBox="0 0 396 77" data-background-color="#ffffff" preserveAspectRatio="xMidYMid meet" height="388" width="2000" xmlns="http://www.w3.org/2000/svg" xmlns:xlink="http://www.w3.org/1999/xlink"><g id="tight-bounds" transform="matrix(1,0,0,1,0.2400000000000091,-0.1927293852721732)"><svg viewBox="0 0 395.52 77.38545877054435" height="77.38545877054435" width="395.52"><g><svg viewBox="0 0 513.0474520414814 100.38029037037036" height="77.38545877054435" width="395.52"><g transform="matrix(1,0,0,1,117.52745204148147,13.873108148148148)"><svg viewBox="0 0 395.52 72.63407407407406" height="72.63407407407406" width="395.52"><g id="textblocktransform"><svg viewBox="0 0 395.52 72.63407407407406" height="72.63407407407406" width="395.52" id="textblock"><g><svg viewBox="0 0 395.52 72.63407407407406" height="72.63407407407406" width="395.52"><g transform="matrix(1,0,0,1,0,0)"><svg width="395.52" viewBox="2.65 -37 259.18 47.6" height="72.63407407407406" data-palette-color="#755bdd"><path d="M18.5 0L2.65 0 2.65-5.3 7.25-5.3 7.25-29.6 2.65-29.6 2.65-34.9 18.5-34.9 18.5-29.6 13.85-29.6 13.85-5.3 18.5-5.3 18.5 0ZM31.25 0L24.85 0 24.85-26.1 31.25-26.1 31.25-21.75 31.5-21.75Q32.25-23.8 33.9-25.25 35.55-26.7 38.5-26.7L38.5-26.7Q41.2-26.7 43.15-25.4 45.1-24.1 46.05-21.45L46.05-21.45 46.15-21.45Q46.85-23.65 48.92-25.18 51-26.7 54.15-26.7L54.15-26.7Q58-26.7 60.07-24.05 62.15-21.4 62.15-16.5L62.15-16.5 62.15 0 55.75 0 55.75-15.85Q55.75-21.45 51.55-21.45L51.55-21.45Q50.6-21.45 49.72-21.18 48.85-20.9 48.17-20.38 47.5-19.85 47.1-19.07 46.7-18.3 46.7-17.25L46.7-17.25 46.7 0 40.3 0 40.3-15.85Q40.3-21.45 36.1-21.45L36.1-21.45Q35.2-21.45 34.32-21.18 33.45-20.9 32.77-20.38 32.1-19.85 31.67-19.07 31.25-18.3 31.25-17.25L31.25-17.25 31.25 0ZM92 0L88.45 0Q86.35 0 85.12-1.23 83.9-2.45 83.6-4.5L83.6-4.5 83.3-4.5Q82.65-1.95 80.65-0.68 78.65 0.6 75.7 0.6L75.7 0.6Q71.7 0.6 69.55-1.5 67.4-3.6 67.4-7.1L67.4-7.1Q67.4-11.15 70.3-13.13 73.2-15.1 78.55-15.1L78.55-15.1 83-15.1 83-17Q83-19.2 81.85-20.4 80.7-21.6 78.15-21.6L78.15-21.6Q75.9-21.6 74.52-20.63 73.15-19.65 72.2-18.3L72.2-18.3 68.4-21.7Q69.85-23.95 72.25-25.33 74.65-26.7 78.6-26.7L78.6-26.7Q83.9-26.7 86.65-24.3 89.4-21.9 89.4-17.4L89.4-17.4 89.4-5.1 92-5.1 92 0ZM77.85-4.05L77.85-4.05Q80-4.05 81.5-5 83-5.95 83-7.8L83-7.8 83-11.25 78.9-11.25Q73.9-11.25 73.9-8.05L73.9-8.05 73.9-7.2Q73.9-5.6 74.92-4.83 75.95-4.05 77.85-4.05ZM120.74 2.2L120.74 2.2Q120.74 4.25 120.02 5.83 119.29 7.4 117.64 8.45 115.99 9.5 113.39 10.05 110.79 10.6 107.04 10.6L107.04 10.6Q103.74 10.6 101.44 10.18 99.14 9.75 97.67 8.97 96.19 8.2 95.54 7.05 94.89 5.9 94.89 4.45L94.89 4.45Q94.89 2.25 96.12 1.03 97.34-0.2 99.54-0.55L99.54-0.55 99.54-1.1Q97.94-1.5 97.07-2.68 96.19-3.85 96.19-5.45L96.19-5.45Q96.19-6.45 96.59-7.23 96.99-8 97.67-8.55 98.34-9.1 99.19-9.47 100.04-9.85 100.99-10.05L100.99-10.05 100.99-10.25Q98.59-11.35 97.42-13.3 96.24-15.25 96.24-17.85L96.24-17.85Q96.24-21.85 98.99-24.28 101.74-26.7 107.04-26.7L107.04-26.7Q108.24-26.7 109.42-26.55 110.59-26.4 111.59-26.05L111.59-26.05 111.59-26.9Q111.59-30.7 115.29-30.7L115.29-30.7 119.34-30.7 119.34-25.8 113.79-25.8 113.79-25.1Q115.84-23.95 116.84-22.1 117.84-20.25 117.84-17.85L117.84-17.85Q117.84-13.9 115.12-11.5 112.39-9.1 107.04-9.1L107.04-9.1Q104.74-9.1 103.04-9.55L103.04-9.55Q102.29-9.2 101.74-8.63 101.19-8.05 101.19-7.2L101.19-7.2Q101.19-5.25 104.59-5.25L104.59-5.25 111.59-5.25Q116.39-5.25 118.57-3.28 120.74-1.3 120.74 2.2ZM114.74 2.95L114.74 2.95Q114.74 1.7 113.74 1 112.74 0.3 110.29 0.3L110.29 0.3 101.39 0.3Q100.04 1.3 100.04 3L100.04 3Q100.04 4.5 101.29 5.35 102.54 6.2 105.54 6.2L105.54 6.2 108.74 6.2Q111.89 6.2 113.32 5.4 114.74 4.6 114.74 2.95ZM107.04-13.45L107.04-13.45Q111.74-13.45 111.74-17.45L111.74-17.45 111.74-18.3Q111.74-22.3 107.04-22.3L107.04-22.3Q102.34-22.3 102.34-18.3L102.34-18.3 102.34-17.45Q102.34-13.45 107.04-13.45ZM134.69 0.6L134.69 0.6Q131.79 0.6 129.52-0.38 127.24-1.35 125.67-3.13 124.09-4.9 123.24-7.43 122.39-9.95 122.39-13.1L122.39-13.1Q122.39-16.2 123.22-18.7 124.04-21.2 125.59-22.98 127.14-24.75 129.39-25.73 131.64-26.7 134.49-26.7L134.49-26.7Q137.54-26.7 139.79-25.65 142.04-24.6 143.49-22.8 144.94-21 145.67-18.63 146.39-16.25 146.39-13.55L146.39-13.55 146.39-11.45 129.04-11.45 129.04-10.8Q129.04-7.95 130.64-6.23 132.24-4.5 135.39-4.5L135.39-4.5Q137.79-4.5 139.32-5.5 140.84-6.5 142.04-8.05L142.04-8.05 145.49-4.2Q143.89-1.95 141.12-0.68 138.34 0.6 134.69 0.6ZM134.59-21.9L134.59-21.9Q132.04-21.9 130.54-20.2 129.04-18.5 129.04-15.8L129.04-15.8 129.04-15.4 139.74-15.4 139.74-15.85Q139.74-18.55 138.42-20.23 137.09-21.9 134.59-21.9ZM165.99 0.6L165.99 0.6Q162.54 0.6 159.76-0.53 156.99-1.65 155.01-3.9 153.04-6.15 151.99-9.47 150.94-12.8 150.94-17.2L150.94-17.2Q150.94-21.6 151.99-25.03 153.04-28.45 155.01-30.78 156.99-33.1 159.76-34.3 162.54-35.5 165.99-35.5L165.99-35.5Q170.69-35.5 173.79-33.5 176.89-31.5 178.74-27.45L178.74-27.45 173.09-24.45Q172.34-26.8 170.64-28.23 168.94-29.65 165.99-29.65L165.99-29.65Q162.29-29.65 160.11-27.15 157.94-24.65 157.94-20.15L157.94-20.15 157.94-14.65Q157.94-10.1 160.11-7.68 162.29-5.25 165.99-5.25L165.99-5.25Q168.94-5.25 170.81-6.85 172.69-8.45 173.54-10.8L173.54-10.8 178.89-7.65Q176.99-3.75 173.84-1.58 170.69 0.6 165.99 0.6ZM190.54 0L184.14 0 184.14-26.1 190.54-26.1 190.54-20.7 190.79-20.7Q191.04-21.75 191.56-22.73 192.09-23.7 192.94-24.45 193.79-25.2 194.96-25.65 196.14-26.1 197.69-26.1L197.69-26.1 199.09-26.1 199.09-20.05 197.09-20.05Q193.84-20.05 192.19-19.1 190.54-18.15 190.54-16L190.54-16 190.54 0ZM225.98 0L222.43 0Q220.33 0 219.11-1.23 217.88-2.45 217.58-4.5L217.58-4.5 217.28-4.5Q216.63-1.95 214.63-0.68 212.63 0.6 209.68 0.6L209.68 0.6Q205.68 0.6 203.53-1.5 201.38-3.6 201.38-7.1L201.38-7.1Q201.38-11.15 204.28-13.13 207.18-15.1 212.53-15.1L212.53-15.1 216.98-15.1 216.98-17Q216.98-19.2 215.83-20.4 214.68-21.6 212.13-21.6L212.13-21.6Q209.88-21.6 208.51-20.63 207.13-19.65 206.18-18.3L206.18-18.3 202.38-21.7Q203.83-23.95 206.23-25.33 208.63-26.7 212.58-26.7L212.58-26.7Q217.88-26.7 220.63-24.3 223.38-21.9 223.38-17.4L223.38-17.4 223.38-5.1 225.98-5.1 225.98 0ZM211.83-4.05L211.83-4.05Q213.98-4.05 215.48-5 216.98-5.95 216.98-7.8L216.98-7.8 216.98-11.25 212.88-11.25Q207.88-11.25 207.88-8.05L207.88-8.05 207.88-7.2Q207.88-5.6 208.91-4.83 209.93-4.05 211.83-4.05ZM232.48 0L232.48-21.05 228.63-21.05 228.63-26.1 232.48-26.1 232.48-29.85Q232.48-33.3 234.31-35.15 236.13-37 239.68-37L239.68-37 244.23-37 244.23-31.9 238.88-31.9 238.88-26.1 244.23-26.1 244.23-21.05 238.88-21.05 238.88 0 232.48 0ZM261.43 0L256.83 0Q253.53 0 251.8-1.73 250.08-3.45 250.08-6.65L250.08-6.65 250.08-21 246.23-21 246.23-26.1 248.23-26.1Q249.68-26.1 250.2-26.78 250.73-27.45 250.73-28.8L250.73-28.8 250.73-33.25 256.48-33.25 256.48-26.1 261.83-26.1 261.83-21 256.48-21 256.48-5.1 261.43-5.1 261.43 0Z" opacity="1" transform="matrix(1,0,0,1,0,0)" fill="#755bdd" class="wordmark-text-0" data-fill-palette-color="primary" id="text-0"></path></svg></g></svg></g></svg></g></svg></g><g><svg viewBox="0 0 100.38029037037036 100.38029037037036" height="100.38029037037036" width="100.38029037037036"><g data-palette-color="#6c47ff"><rect width="27.43727936790123" height="100.38029037037036" fill="#6c47ff" stroke="transparent" data-fill-palette-color="accent" x="0" fill-opacity="0.5"></rect><rect width="27.43727936790123" height="100.38029037037036" fill="#6c47ff" stroke="transparent" data-fill-palette-color="accent" x="33.46009679012345" fill-opacity="0.75"></rect><rect width="27.43727936790123" height="100.38029037037036" fill="#6c47ff" stroke="transparent" data-fill-palette-color="accent" x="66.9201935802469" fill-opacity="1"></rect></g></svg></g></svg></g><defs></defs></svg><rect width="395.52" height="77.38545877054435" fill="none" stroke="none" visibility="hidden"></rect></g></svg></g></svg>