<svg version="1.1" id="Layer_1" xmlns="http://www.w3.org/2000/svg" xmlns:xlink="http://www.w3.org/1999/xlink" x="0px" y="0px"
	 width="100%" viewBox="0 0 444 409" enable-background="new 0 0 444 409" xml:space="preserve">
<path fill="#FFFFFF" opacity="1.000000" stroke="none" 
	d="
M36.000000,410.000000 
	C24.343994,410.000000 12.687988,410.000000 1.039446,410.000000 
	C1.046908,273.666656 1.046908,137.333328 1.046908,1.000000 
	C12.416772,1.000000 23.739727,1.000000 35.454227,1.212618 
	C35.845772,1.425235 35.906311,1.873505 35.841541,2.349672 
	C35.765907,137.262894 35.754696,271.699951 35.750889,406.136993 
	C35.750862,407.133453 35.852242,408.129913 35.876015,409.350525 
	C35.845760,409.574677 36.000000,410.000000 36.000000,410.000000 
z"/>
<path fill="#FFFFFF" opacity="1.000000" stroke="none" 
	d="
M419.000000,1.000000 
	C427.658447,1.000000 436.316864,1.000000 444.956787,1.000000 
	C444.956787,137.333344 444.956787,273.666687 444.956787,410.000000 
	C436.588165,410.000000 428.262726,410.000000 419.457764,409.731293 
	C418.962280,409.284027 418.946350,409.105438 418.958313,408.465454 
	C418.998779,285.687012 419.013824,163.370026 419.020203,41.053013 
	C419.020874,28.055422 418.970703,15.057826 418.963867,1.795478 
	C418.989044,1.353815 418.994507,1.176908 419.000000,1.000000 
z"/>
<path fill="#FFFFFF" opacity="1.000000" stroke="none" 
	d="
M172.000000,410.000000 
	C163.979095,410.000000 155.958191,410.000000 147.457489,409.728210 
	C146.955154,409.276520 146.932632,409.096588 146.973511,408.457581 
	C147.046265,273.690247 147.055923,139.382034 147.058517,5.073819 
	C147.058533,4.077018 146.961716,3.080216 146.943909,1.813499 
	C146.985123,1.362390 146.992569,1.181195 147.000000,1.000000 
	C155.020905,1.000000 163.041809,1.000000 171.479095,1.217590 
	C171.895477,1.435179 171.914185,1.882343 171.867538,2.360661 
	C171.812561,137.433899 171.804001,272.028809 171.800766,406.623718 
	C171.800751,407.454987 171.874725,408.286285 171.904816,409.341156 
	C171.895462,409.564758 172.000000,410.000000 172.000000,410.000000 
z"/>
<path fill="#FFFFFF" opacity="1.000000" stroke="none" 
	d="
M308.000000,410.000000 
	C299.979095,410.000000 291.958191,410.000000 283.454407,409.728088 
	C282.950867,409.275848 282.930237,409.095490 282.961365,408.455566 
	C283.022278,273.523407 283.031647,139.050842 283.035156,4.578276 
	C283.035187,3.747157 282.953278,2.916037 282.940582,1.814383 
	C282.981049,1.362566 282.990540,1.181283 283.000000,1.000000 
	C290.687592,1.000000 298.375153,1.000000 306.543945,1.269142 
	C307.041840,1.717127 307.058563,1.895972 307.191589,2.464577 
	C307.497131,4.987102 307.851501,7.119829 307.851959,9.252635 
	C307.878479,131.955688 307.874237,254.658752 307.878052,377.361816 
	C307.878357,387.944061 307.912903,398.526276 307.951111,409.331207 
	C307.970612,409.553894 308.000000,410.000000 308.000000,410.000000 
z"/>
<path fill="#E0D8FF" opacity="1.000000" stroke="none" 
	d="
M307.075256,2.074816 
	C307.058563,1.895972 307.041840,1.717127 307.012573,1.269142 
	C344.020905,1.000000 381.041779,1.000000 418.531342,1.000000 
	C418.994507,1.176908 418.989044,1.353815 418.501251,1.769575 
	C381.037689,2.030556 344.056458,2.052686 307.075256,2.074816 
z"/>
<path fill="#BAA9FF" opacity="1.000000" stroke="none" 
	d="
M146.531342,1.000000 
	C146.992569,1.181195 146.985123,1.362390 146.482605,1.783388 
	C109.293770,1.973297 72.600044,1.923401 35.906311,1.873505 
	C35.906311,1.873505 35.845772,1.425235 35.922886,1.212618 
	C72.687561,1.000000 109.375122,1.000000 146.531342,1.000000 
z"/>
<path fill="#CCBFFF" opacity="1.000000" stroke="none" 
	d="
M282.531342,1.000000 
	C282.990540,1.181283 282.981049,1.362566 282.480225,1.783826 
	C245.297348,1.976650 208.605759,1.929497 171.914185,1.882343 
	C171.914185,1.882343 171.895477,1.435179 171.947739,1.217590 
	C208.687561,1.000000 245.375122,1.000000 282.531342,1.000000 
z"/>
<path fill="#BAA9FF" opacity="1.000000" stroke="none" 
	d="
M146.910095,408.916656 
	C146.932632,409.096588 146.955154,409.276520 146.988846,409.728210 
	C110.312439,410.000000 73.624878,410.000000 36.468658,410.000000 
	C36.000000,410.000000 35.845760,409.574677 36.350864,409.303986 
	C73.540680,408.994415 110.225388,408.955536 146.910095,408.916656 
z"/>
<path fill="#CCBFFF" opacity="1.000000" stroke="none" 
	d="
M282.909607,408.915161 
	C282.930237,409.095490 282.950867,409.275848 282.985748,409.728088 
	C246.312439,410.000000 209.624878,410.000000 172.468658,410.000000 
	C172.000000,410.000000 171.895462,409.564758 172.380127,409.297974 
	C209.546387,408.992554 246.227997,408.953857 282.909607,408.915161 
z"/>
<path fill="#E0D8FF" opacity="1.000000" stroke="none" 
	d="
M308.468658,410.000000 
	C308.000000,410.000000 307.970612,409.553894 308.425232,409.295837 
	C345.563354,409.000824 382.246887,408.963867 418.930389,408.926880 
	C418.946350,409.105438 418.962280,409.284027 418.989105,409.731293 
	C382.312439,410.000000 345.624878,410.000000 308.468658,410.000000 
z"/>
<path fill="#6C47FF" opacity="1.000000" stroke="none" 
	d="
M146.973511,408.457581 
	C110.225388,408.955536 73.540680,408.994415 36.381119,409.079834 
	C35.852242,408.129913 35.750862,407.133453 35.750889,406.136993 
	C35.754696,271.699951 35.765907,137.262894 35.841541,2.349672 
	C72.600044,1.923401 109.293770,1.973297 146.448822,2.053303 
	C146.961716,3.080216 147.058533,4.077018 147.058517,5.073819 
	C147.055923,139.382034 147.046265,273.690247 146.973511,408.457581 
z"/>
<path fill="#B5A2FF" opacity="1.000000" stroke="none" 
	d="
M418.958313,408.465454 
	C382.246887,408.963867 345.563354,409.000824 308.405701,409.073151 
	C307.912903,398.526276 307.878357,387.944061 307.878052,377.361816 
	C307.874237,254.658752 307.878479,131.955688 307.851959,9.252635 
	C307.851501,7.119829 307.497131,4.987102 307.191589,2.464577 
	C344.056458,2.052686 381.037689,2.030556 418.481506,2.034329 
	C418.970703,15.057826 419.020874,28.055422 419.020203,41.053013 
	C419.013824,163.370026 418.998779,285.687012 418.958313,408.465454 
z"/>
<path fill="#9174FE" opacity="1.000000" stroke="none" 
	d="
M282.961365,408.455566 
	C246.227997,408.953857 209.546387,408.992554 172.389465,409.074402 
	C171.874725,408.286285 171.800751,407.454987 171.800766,406.623718 
	C171.804001,272.028809 171.812561,137.433899 171.867538,2.360661 
	C208.605759,1.929497 245.297348,1.976650 282.449280,2.054361 
	C282.953278,2.916037 283.035187,3.747157 283.035156,4.578276 
	C283.031647,139.050842 283.022278,273.523407 282.961365,408.455566 
z"/>
</svg>